<svg xmlns="http://www.w3.org/2000/svg" viewBox="0 0 512 512">
  <defs>
    <linearGradient id="g" x1="0" y1="0" x2="1" y2="1">
      <stop offset="0%" stop-color="#6366f1"/>
      <stop offset="100%" stop-color="#312e81"/>
    </linearGradient>
  </defs>
  <rect width="512" height="512" fill="url(#g)"/>
  <g fill="#fff" transform="translate(64,64) scale(0.75)">
    <rect x="96" y="120" width="320" height="272" rx="14" fill="#fff" opacity="0.08"/>
    <rect x="120" y="160" width="40" height="200" rx="4"/>
    <rect x="168" y="160" width="40" height="200" rx="4"/>
    <rect x="216" y="160" width="40" height="200" rx="4"/>
    <rect x="264" y="160" width="40" height="200" rx="4"/>
    <rect x="312" y="160" width="40" height="200" rx="4"/>
    <rect x="360" y="160" width="40" height="200" rx="4"/>
    <rect x="148" y="160" width="24" height="124" rx="2" fill="#1e1b4b"/>
    <rect x="196" y="160" width="24" height="124" rx="2" fill="#1e1b4b"/>
    <rect x="292" y="160" width="24" height="124" rx="2" fill="#1e1b4b"/>
    <rect x="340" y="160" width="24" height="124" rx="2" fill="#1e1b4b"/>
    <rect x="388" y="160" width="24" height="124" rx="2" fill="#1e1b4b"/>
  </g>
</svg>
